<mxfile host="app.diagrams.net" agent="Mozilla/5.0 (Windows NT 10.0; Win64; x64) AppleWebKit/537.36 (KHTML, like Gecko) Chrome/127.0.0.0 Safari/537.36" version="24.7.7">
  <diagram name="Page-1" id="d_EMwRNkbNsLEGoNPHXn">
    <mxGraphModel dx="874" dy="451" grid="1" gridSize="10" guides="1" tooltips="1" connect="1" arrows="1" fold="1" page="1" pageScale="1" pageWidth="850" pageHeight="1100" math="0" shadow="0">
      <root>
        <mxCell id="0" />
        <mxCell id="1" parent="0" />
        <mxCell id="xGmYWRNddNLQcnzCx-a8-13" style="edgeStyle=orthogonalEdgeStyle;rounded=0;orthogonalLoop=1;jettySize=auto;html=1;exitX=0.5;exitY=1;exitDx=0;exitDy=0;entryX=0.5;entryY=0;entryDx=0;entryDy=0;" edge="1" parent="1" source="xGmYWRNddNLQcnzCx-a8-1" target="xGmYWRNddNLQcnzCx-a8-12">
          <mxGeometry relative="1" as="geometry" />
        </mxCell>
        <mxCell id="xGmYWRNddNLQcnzCx-a8-23" style="edgeStyle=orthogonalEdgeStyle;rounded=0;orthogonalLoop=1;jettySize=auto;html=1;exitX=1;exitY=0.5;exitDx=0;exitDy=0;entryX=0;entryY=0.5;entryDx=0;entryDy=0;" edge="1" parent="1" source="xGmYWRNddNLQcnzCx-a8-1" target="xGmYWRNddNLQcnzCx-a8-21">
          <mxGeometry relative="1" as="geometry" />
        </mxCell>
        <mxCell id="xGmYWRNddNLQcnzCx-a8-1" value="Main Menu" style="rounded=0;whiteSpace=wrap;html=1;" vertex="1" parent="1">
          <mxGeometry x="310" y="30" width="120" height="60" as="geometry" />
        </mxCell>
        <mxCell id="xGmYWRNddNLQcnzCx-a8-48" style="edgeStyle=orthogonalEdgeStyle;rounded=0;orthogonalLoop=1;jettySize=auto;html=1;exitX=1;exitY=0.5;exitDx=0;exitDy=0;entryX=0;entryY=0.5;entryDx=0;entryDy=0;" edge="1" parent="1" source="xGmYWRNddNLQcnzCx-a8-4" target="xGmYWRNddNLQcnzCx-a8-5">
          <mxGeometry relative="1" as="geometry" />
        </mxCell>
        <mxCell id="xGmYWRNddNLQcnzCx-a8-58" style="edgeStyle=orthogonalEdgeStyle;rounded=0;orthogonalLoop=1;jettySize=auto;html=1;exitX=0.5;exitY=1;exitDx=0;exitDy=0;entryX=0.5;entryY=0;entryDx=0;entryDy=0;" edge="1" parent="1" source="xGmYWRNddNLQcnzCx-a8-4" target="xGmYWRNddNLQcnzCx-a8-22">
          <mxGeometry relative="1" as="geometry" />
        </mxCell>
        <mxCell id="xGmYWRNddNLQcnzCx-a8-4" value="Level 1" style="rounded=0;whiteSpace=wrap;html=1;" vertex="1" parent="1">
          <mxGeometry x="30" y="240" width="100" height="40" as="geometry" />
        </mxCell>
        <mxCell id="xGmYWRNddNLQcnzCx-a8-49" style="edgeStyle=orthogonalEdgeStyle;rounded=0;orthogonalLoop=1;jettySize=auto;html=1;exitX=1;exitY=0.5;exitDx=0;exitDy=0;entryX=0;entryY=0.5;entryDx=0;entryDy=0;" edge="1" parent="1" source="xGmYWRNddNLQcnzCx-a8-5" target="xGmYWRNddNLQcnzCx-a8-6">
          <mxGeometry relative="1" as="geometry" />
        </mxCell>
        <mxCell id="xGmYWRNddNLQcnzCx-a8-55" style="edgeStyle=orthogonalEdgeStyle;rounded=0;orthogonalLoop=1;jettySize=auto;html=1;exitX=0;exitY=0.5;exitDx=0;exitDy=0;" edge="1" parent="1" source="xGmYWRNddNLQcnzCx-a8-5">
          <mxGeometry relative="1" as="geometry">
            <mxPoint x="130" y="259.5882352941177" as="targetPoint" />
          </mxGeometry>
        </mxCell>
        <mxCell id="xGmYWRNddNLQcnzCx-a8-59" style="edgeStyle=orthogonalEdgeStyle;rounded=0;orthogonalLoop=1;jettySize=auto;html=1;exitX=0.5;exitY=1;exitDx=0;exitDy=0;entryX=0.5;entryY=0;entryDx=0;entryDy=0;" edge="1" parent="1" source="xGmYWRNddNLQcnzCx-a8-5" target="xGmYWRNddNLQcnzCx-a8-22">
          <mxGeometry relative="1" as="geometry" />
        </mxCell>
        <mxCell id="xGmYWRNddNLQcnzCx-a8-5" value="Level 2" style="rounded=0;whiteSpace=wrap;html=1;" vertex="1" parent="1">
          <mxGeometry x="170" y="240" width="100" height="40" as="geometry" />
        </mxCell>
        <mxCell id="xGmYWRNddNLQcnzCx-a8-50" style="edgeStyle=orthogonalEdgeStyle;rounded=0;orthogonalLoop=1;jettySize=auto;html=1;exitX=1;exitY=0.5;exitDx=0;exitDy=0;entryX=0;entryY=0.5;entryDx=0;entryDy=0;" edge="1" parent="1" source="xGmYWRNddNLQcnzCx-a8-6" target="xGmYWRNddNLQcnzCx-a8-7">
          <mxGeometry relative="1" as="geometry" />
        </mxCell>
        <mxCell id="xGmYWRNddNLQcnzCx-a8-54" style="edgeStyle=orthogonalEdgeStyle;rounded=0;orthogonalLoop=1;jettySize=auto;html=1;exitX=0;exitY=0.5;exitDx=0;exitDy=0;" edge="1" parent="1" source="xGmYWRNddNLQcnzCx-a8-6">
          <mxGeometry relative="1" as="geometry">
            <mxPoint x="270" y="259.5882352941177" as="targetPoint" />
          </mxGeometry>
        </mxCell>
        <mxCell id="xGmYWRNddNLQcnzCx-a8-60" style="edgeStyle=orthogonalEdgeStyle;rounded=0;orthogonalLoop=1;jettySize=auto;html=1;exitX=0.5;exitY=1;exitDx=0;exitDy=0;entryX=0.5;entryY=0;entryDx=0;entryDy=0;" edge="1" parent="1" source="xGmYWRNddNLQcnzCx-a8-6" target="xGmYWRNddNLQcnzCx-a8-22">
          <mxGeometry relative="1" as="geometry" />
        </mxCell>
        <mxCell id="xGmYWRNddNLQcnzCx-a8-6" value="Level 3" style="rounded=0;whiteSpace=wrap;html=1;" vertex="1" parent="1">
          <mxGeometry x="320" y="240" width="100" height="40" as="geometry" />
        </mxCell>
        <mxCell id="xGmYWRNddNLQcnzCx-a8-51" style="edgeStyle=orthogonalEdgeStyle;rounded=0;orthogonalLoop=1;jettySize=auto;html=1;exitX=1;exitY=0.5;exitDx=0;exitDy=0;" edge="1" parent="1" source="xGmYWRNddNLQcnzCx-a8-7" target="xGmYWRNddNLQcnzCx-a8-8">
          <mxGeometry relative="1" as="geometry" />
        </mxCell>
        <mxCell id="xGmYWRNddNLQcnzCx-a8-53" style="edgeStyle=orthogonalEdgeStyle;rounded=0;orthogonalLoop=1;jettySize=auto;html=1;exitX=0;exitY=0.5;exitDx=0;exitDy=0;" edge="1" parent="1" source="xGmYWRNddNLQcnzCx-a8-7">
          <mxGeometry relative="1" as="geometry">
            <mxPoint x="419.9999999999998" y="259.5882352941177" as="targetPoint" />
          </mxGeometry>
        </mxCell>
        <mxCell id="xGmYWRNddNLQcnzCx-a8-61" style="edgeStyle=orthogonalEdgeStyle;rounded=0;orthogonalLoop=1;jettySize=auto;html=1;exitX=0.5;exitY=1;exitDx=0;exitDy=0;entryX=0.5;entryY=0;entryDx=0;entryDy=0;" edge="1" parent="1" source="xGmYWRNddNLQcnzCx-a8-7" target="xGmYWRNddNLQcnzCx-a8-22">
          <mxGeometry relative="1" as="geometry" />
        </mxCell>
        <mxCell id="xGmYWRNddNLQcnzCx-a8-7" value="Level 4" style="rounded=0;whiteSpace=wrap;html=1;" vertex="1" parent="1">
          <mxGeometry x="460" y="240" width="100" height="40" as="geometry" />
        </mxCell>
        <mxCell id="xGmYWRNddNLQcnzCx-a8-52" style="edgeStyle=orthogonalEdgeStyle;rounded=0;orthogonalLoop=1;jettySize=auto;html=1;exitX=0;exitY=0.5;exitDx=0;exitDy=0;entryX=1;entryY=0.5;entryDx=0;entryDy=0;" edge="1" parent="1" source="xGmYWRNddNLQcnzCx-a8-8" target="xGmYWRNddNLQcnzCx-a8-7">
          <mxGeometry relative="1" as="geometry" />
        </mxCell>
        <mxCell id="xGmYWRNddNLQcnzCx-a8-62" style="edgeStyle=orthogonalEdgeStyle;rounded=0;orthogonalLoop=1;jettySize=auto;html=1;exitX=0.5;exitY=1;exitDx=0;exitDy=0;entryX=0.5;entryY=0;entryDx=0;entryDy=0;" edge="1" parent="1" source="xGmYWRNddNLQcnzCx-a8-8" target="xGmYWRNddNLQcnzCx-a8-22">
          <mxGeometry relative="1" as="geometry" />
        </mxCell>
        <mxCell id="xGmYWRNddNLQcnzCx-a8-8" value="Level 5" style="rounded=0;whiteSpace=wrap;html=1;" vertex="1" parent="1">
          <mxGeometry x="610" y="240" width="100" height="40" as="geometry" />
        </mxCell>
        <mxCell id="xGmYWRNddNLQcnzCx-a8-14" style="edgeStyle=orthogonalEdgeStyle;rounded=0;orthogonalLoop=1;jettySize=auto;html=1;exitX=0.5;exitY=1;exitDx=0;exitDy=0;entryX=0.5;entryY=0;entryDx=0;entryDy=0;" edge="1" parent="1" source="xGmYWRNddNLQcnzCx-a8-12" target="xGmYWRNddNLQcnzCx-a8-6">
          <mxGeometry relative="1" as="geometry" />
        </mxCell>
        <mxCell id="xGmYWRNddNLQcnzCx-a8-15" style="edgeStyle=orthogonalEdgeStyle;rounded=0;orthogonalLoop=1;jettySize=auto;html=1;exitX=0.5;exitY=1;exitDx=0;exitDy=0;entryX=0.5;entryY=0;entryDx=0;entryDy=0;" edge="1" parent="1" source="xGmYWRNddNLQcnzCx-a8-12" target="xGmYWRNddNLQcnzCx-a8-4">
          <mxGeometry relative="1" as="geometry" />
        </mxCell>
        <mxCell id="xGmYWRNddNLQcnzCx-a8-16" style="edgeStyle=orthogonalEdgeStyle;rounded=0;orthogonalLoop=1;jettySize=auto;html=1;exitX=0.5;exitY=1;exitDx=0;exitDy=0;entryX=0.5;entryY=0;entryDx=0;entryDy=0;" edge="1" parent="1" source="xGmYWRNddNLQcnzCx-a8-12" target="xGmYWRNddNLQcnzCx-a8-5">
          <mxGeometry relative="1" as="geometry" />
        </mxCell>
        <mxCell id="xGmYWRNddNLQcnzCx-a8-17" style="edgeStyle=orthogonalEdgeStyle;rounded=0;orthogonalLoop=1;jettySize=auto;html=1;exitX=0.5;exitY=1;exitDx=0;exitDy=0;entryX=0.5;entryY=0;entryDx=0;entryDy=0;" edge="1" parent="1" source="xGmYWRNddNLQcnzCx-a8-12" target="xGmYWRNddNLQcnzCx-a8-7">
          <mxGeometry relative="1" as="geometry" />
        </mxCell>
        <mxCell id="xGmYWRNddNLQcnzCx-a8-18" style="edgeStyle=orthogonalEdgeStyle;rounded=0;orthogonalLoop=1;jettySize=auto;html=1;exitX=0.5;exitY=1;exitDx=0;exitDy=0;" edge="1" parent="1" source="xGmYWRNddNLQcnzCx-a8-12" target="xGmYWRNddNLQcnzCx-a8-8">
          <mxGeometry relative="1" as="geometry" />
        </mxCell>
        <mxCell id="xGmYWRNddNLQcnzCx-a8-12" value="Level" style="rounded=0;whiteSpace=wrap;html=1;" vertex="1" parent="1">
          <mxGeometry x="330" y="130" width="80" height="40" as="geometry" />
        </mxCell>
        <mxCell id="xGmYWRNddNLQcnzCx-a8-56" style="edgeStyle=orthogonalEdgeStyle;rounded=0;orthogonalLoop=1;jettySize=auto;html=1;exitX=1;exitY=0.5;exitDx=0;exitDy=0;entryX=0;entryY=0.5;entryDx=0;entryDy=0;" edge="1" parent="1" source="xGmYWRNddNLQcnzCx-a8-19" target="xGmYWRNddNLQcnzCx-a8-22">
          <mxGeometry relative="1" as="geometry" />
        </mxCell>
        <mxCell id="xGmYWRNddNLQcnzCx-a8-19" value="Menang" style="rounded=0;whiteSpace=wrap;html=1;" vertex="1" parent="1">
          <mxGeometry x="180" y="400" width="120" height="60" as="geometry" />
        </mxCell>
        <mxCell id="xGmYWRNddNLQcnzCx-a8-21" value="Quit" style="rounded=0;whiteSpace=wrap;html=1;" vertex="1" parent="1">
          <mxGeometry x="490" y="40" width="80" height="40" as="geometry" />
        </mxCell>
        <mxCell id="xGmYWRNddNLQcnzCx-a8-57" style="edgeStyle=orthogonalEdgeStyle;rounded=0;orthogonalLoop=1;jettySize=auto;html=1;exitX=0;exitY=0.5;exitDx=0;exitDy=0;entryX=1;entryY=0.5;entryDx=0;entryDy=0;" edge="1" parent="1" source="xGmYWRNddNLQcnzCx-a8-22" target="xGmYWRNddNLQcnzCx-a8-19">
          <mxGeometry relative="1" as="geometry" />
        </mxCell>
        <mxCell id="xGmYWRNddNLQcnzCx-a8-22" value="Kalah" style="rounded=0;whiteSpace=wrap;html=1;" vertex="1" parent="1">
          <mxGeometry x="440" y="400" width="120" height="60" as="geometry" />
        </mxCell>
      </root>
    </mxGraphModel>
  </diagram>
</mxfile>
